<svg width="114" height="45" viewBox="0 0 114 45" fill="none" xmlns="http://www.w3.org/2000/svg">
<path d="M0 19.2817C0 16.6195 2.15819 14.4613 4.82044 14.4613H95.6054C98.2677 14.4613 100.426 16.6195 100.426 19.2817V39.7686C100.426 42.4309 98.2677 44.5891 95.6054 44.5891H0V19.2817Z" fill="#FFDE59"/>
<path d="M21.9931 36.7795C21.0425 36.7795 20.152 36.5653 19.3218 36.1368C18.9469 35.9494 18.6322 35.7284 18.3778 35.474C18.1904 35.782 17.956 36.0565 17.6748 36.2975C17.4338 36.4716 17.2999 36.5653 17.2731 36.5787H16.771V32.7625H17.5744C17.7753 33.4186 18.0565 34.0078 18.418 34.53C19.2348 35.6949 20.2926 36.2774 21.5914 36.2774C22.3547 36.2774 22.9639 36.0498 23.4192 35.5945C23.8745 35.1393 24.1021 34.53 24.1021 33.7668C24.1021 33.3249 23.9682 32.9299 23.7004 32.5817C23.446 32.2336 23.1246 31.9256 22.7363 31.6578C22.348 31.39 21.8057 31.0553 21.1094 30.6536C20.2257 30.1581 19.5093 29.7096 18.9603 29.3079C18.4113 28.9062 17.9426 28.404 17.5543 27.8015C17.166 27.1855 16.9719 26.4625 16.9719 25.6323C16.9719 24.9762 17.1526 24.387 17.5142 23.8648C17.8891 23.3292 18.4448 22.9074 19.1812 22.5994C19.9177 22.2781 20.8215 22.1174 21.8927 22.1174C22.6694 22.1174 23.446 22.3383 24.2226 22.7802C24.5172 22.9409 24.8118 23.1551 25.1064 23.4229C25.334 23.0748 25.5683 22.8003 25.8093 22.5994C26.0504 22.4253 26.1843 22.3316 26.211 22.3182H26.7132V26.1344H25.9098C25.7357 25.4917 25.4746 24.9092 25.1264 24.387C24.8051 23.8782 24.4034 23.4564 23.9213 23.1216C23.4527 22.7869 22.9104 22.6195 22.2944 22.6195C21.7722 22.6195 21.3236 22.827 20.9487 23.2421C20.5738 23.6572 20.3863 24.1861 20.3863 24.8289C20.3863 25.3243 20.5269 25.7729 20.8081 26.1746C21.1027 26.5629 21.4575 26.9043 21.8726 27.1989C22.3011 27.4935 22.8769 27.8483 23.6 28.2634C24.4435 28.7455 25.1264 29.174 25.6487 29.5489C26.1709 29.9238 26.6127 30.3925 26.9743 30.9548C27.3358 31.5038 27.5166 32.1399 27.5166 32.8629C27.5166 33.586 27.309 34.2488 26.8939 34.8514C26.4788 35.4405 25.8562 35.9092 25.026 36.2573C24.1958 36.6055 23.1849 36.7795 21.9931 36.7795ZM28.8166 36.177L30.0217 35.8757V23.0212L28.8166 22.7199V22.4186H31.4277C32.6328 22.4186 33.2354 23.0212 33.2354 24.2263V27.4399C33.4362 27.1721 33.6438 26.9579 33.858 26.7972C34.4338 26.3553 35.0966 26.1344 35.8464 26.1344C36.5963 26.1344 37.2658 26.2951 37.8549 26.6165C38.4575 26.9244 38.9262 27.3328 39.2609 27.8416C39.5957 28.3505 39.763 28.8861 39.763 29.4485V35.8757L40.9681 36.177V36.4783H38.3571C37.152 36.4783 36.5494 35.8757 36.5494 34.6706V29.4485C36.5494 28.6049 36.3954 27.9622 36.0874 27.5203C35.7929 27.065 35.4447 26.8374 35.043 26.8374C34.5342 26.8374 34.0789 27.1052 33.6772 27.6408C33.5032 27.8684 33.3559 28.1362 33.2354 28.4442V35.8757L34.4405 36.177V36.4783H28.8166V36.177ZM42.174 36.177L43.3792 35.8757V23.0212L42.174 22.7199V22.4186H44.7851C45.9902 22.4186 46.5928 23.0212 46.5928 24.2263V35.8757L47.7979 36.177V36.4783H42.174V36.177ZM51.2092 40.7966C50.6067 40.7966 50.138 40.6359 49.8033 40.3145C49.4685 39.9932 49.3011 39.5513 49.3011 38.9889C49.3011 38.4801 49.435 38.0851 49.7028 37.8039C49.984 37.5227 50.3523 37.3821 50.8075 37.3821C50.9146 37.3821 51.0218 37.3888 51.1289 37.4022C51.236 37.429 51.3097 37.4424 51.3498 37.4424L51.6109 37.4825V40.194C51.9992 40.1271 52.3407 39.9128 52.6353 39.5513C52.9299 39.1898 53.2579 38.5671 53.6194 37.6834L54.0212 36.6791L48.799 27.0382L47.7947 26.737V26.4357H50.3054C51.0017 26.4357 51.5507 26.583 51.9524 26.8776C52.3675 27.1588 52.7223 27.5805 53.0169 28.1429L55.5275 32.7826L57.6365 27.3395L56.1301 26.737V26.4357H59.8459V26.737L58.239 27.3395L54.222 37.6834C53.7935 38.7814 53.3383 39.5714 52.8562 40.0534C52.3742 40.5489 51.8252 40.7966 51.2092 40.7966ZM63.3513 36.7795C62.1596 36.7795 61.2424 36.5251 60.5997 36.0163C59.957 35.5075 59.6356 34.8581 59.6356 34.0681C59.6356 33.5458 59.7494 33.0303 59.977 32.5215C60.0708 32.2805 60.1913 32.0595 60.3386 31.8587C60.8876 31.7248 61.4834 31.6043 62.1261 31.4971C63.5723 31.2561 64.851 31.1088 65.9624 31.0553V30.4527C65.9624 28.9664 65.7817 27.9421 65.4201 27.3797C65.0586 26.8173 64.5029 26.5361 63.753 26.5361C63.4719 26.5361 63.2308 26.5696 63.03 26.6365L62.7488 26.737V29.7497L62.4877 29.81C62.2734 29.8368 62.0927 29.8502 61.9454 29.8502C61.4901 29.8502 61.1219 29.7163 60.8407 29.4485C60.5729 29.1673 60.439 28.799 60.439 28.3438C60.439 27.7278 60.747 27.2056 61.3629 26.7771C61.9922 26.3486 62.9229 26.1344 64.1548 26.1344C65.1992 26.1344 66.0963 26.3219 66.8462 26.6968C67.6094 27.0583 68.1852 27.5671 68.5735 28.2233C68.9752 28.866 69.176 29.6091 69.176 30.4527V35.8757L70.3812 36.177V36.4783H68.5735C67.7701 36.4783 67.1474 36.2306 66.7056 35.7351C66.5181 35.5343 66.3708 35.2799 66.2637 34.9719C66.0762 35.3066 65.8553 35.6079 65.6009 35.8757C64.9983 36.4783 64.2485 36.7795 63.3513 36.7795ZM64.1548 36.0766C64.6502 36.0766 65.0988 35.8088 65.5005 35.2732C65.6477 35.0723 65.8017 34.8045 65.9624 34.4698V31.5574C65.3465 31.5574 64.7573 31.5909 64.1949 31.6578C63.7798 31.7114 63.4986 31.7449 63.3513 31.7583C63.2844 31.9055 63.2174 32.1064 63.1505 32.3608C63.0166 32.8696 62.9496 33.3718 62.9496 33.8672C62.9496 34.617 63.0635 35.1727 63.2911 35.5343C63.5187 35.8958 63.8066 36.0766 64.1548 36.0766ZM71.5957 36.177L72.8008 35.8757V23.0212L71.5957 22.7199V22.4186H74.2068C75.4119 22.4186 76.0144 23.0212 76.0144 24.2263V27.4399C76.2153 27.1721 76.4228 26.9579 76.6371 26.7972C77.2128 26.3553 77.8756 26.1344 78.6255 26.1344C79.3753 26.1344 80.0448 26.2951 80.634 26.6165C81.2366 26.9244 81.7052 27.3328 82.04 27.8416C82.3747 28.3505 82.5421 28.8861 82.5421 29.4485V35.8757L83.7472 36.177V36.4783H81.1361C79.931 36.4783 79.3285 35.8757 79.3285 34.6706V29.4485C79.3285 28.6049 79.1745 27.9622 78.8665 27.5203C78.5719 27.065 78.2238 26.8374 77.8221 26.8374C77.3133 26.8374 76.858 27.1052 76.4563 27.6408C76.2822 27.8684 76.1349 28.1362 76.0144 28.4442V35.8757L77.2195 36.177V36.4783H71.5957V36.177Z" fill="black"/>
<path d="M113.472 7.27933C113.26 6.45241 112.934 5.65917 112.503 4.92276C112.089 4.15669 111.559 3.459 110.932 2.85422C110.023 1.9486 108.947 1.22827 107.764 0.733306C105.381 -0.244435 102.71 -0.244435 100.327 0.733306C99.2087 1.20682 98.1809 1.87132 97.29 2.69711L97.1591 2.85422L95.4571 4.55618L93.7551 2.85422L93.6242 2.69711C92.7333 1.87132 91.7055 1.20682 90.5868 0.733306C88.2045 -0.244435 85.5329 -0.244435 83.1506 0.733306C81.967 1.22827 80.8909 1.9486 79.9823 2.85422C78.7395 4.06348 77.8597 5.59627 77.4424 7.27933C77.2204 8.13404 77.1147 9.01478 77.1282 9.89774C77.1282 10.7304 77.233 11.5578 77.4424 12.359C77.6619 13.1709 77.9784 13.9533 78.3851 14.6894C78.8242 15.4462 79.3612 16.1417 79.9823 16.758L95.4571 32.2328L110.932 16.758C111.552 16.1505 112.084 15.454 112.503 14.6894C113.353 13.2365 113.797 11.5812 113.786 9.89774C113.8 9.01478 113.694 8.13402 113.472 7.27933Z" fill="#7ECAF7"/>
<path d="M90.7045 19.8649C89.1191 19.8649 87.9194 19.4954 87.1053 18.7562C86.2912 18.0064 85.8841 16.9566 85.8841 15.6069V8.85825L84.92 8.61723V8.3762H89.4994V8.61723L88.5353 8.85825V15.6069C88.5353 16.9887 88.7496 17.9796 89.1781 18.5795C89.6065 19.1686 90.2225 19.4632 91.0259 19.4632C91.5187 19.4632 91.9846 19.3079 92.4238 18.9972C92.8737 18.6759 93.2326 18.226 93.5004 17.6475C93.7789 17.0584 93.9182 16.3781 93.9182 15.6069V9.09927L92.6327 8.61723V8.3762H95.6857V8.61723L94.4002 9.09927V15.6069C94.4002 16.4745 94.2395 17.2297 93.9182 17.8725C93.5968 18.5152 93.1576 19.008 92.6006 19.3507C92.0435 19.6935 91.4115 19.8649 90.7045 19.8649ZM94.6437 19.3829L95.9292 18.9008L100.348 8.21552H100.83L105.409 19.1419L106.213 19.3829V19.6239H104.285C103.728 19.6239 103.272 19.5007 102.919 19.2543C102.565 18.9972 102.303 18.6652 102.131 18.2581L101.312 16.3299H97.4717L96.4112 18.9008L97.6163 19.3829V19.6239H94.6437V19.3829ZM97.6324 15.9282H101.151L99.3838 11.7023L97.6324 15.9282Z" fill="black"/>
</svg>
