<svg width="16" height="16" viewBox="0 0 16 16" fill="none" xmlns="http://www.w3.org/2000/svg">
<path d="M0 3.62264C0 1.62191 1.62191 0 3.62264 0H12.3774C14.3781 0 16 1.62191 16 3.62264V12.3774C16 14.3781 14.3781 16 12.3774 16H0V3.62264Z" fill="#FFDE59"/>
<path d="M6.26411 13.7264C5.54964 13.7264 4.88046 13.5654 4.25656 13.2434C3.9748 13.1025 3.73832 12.9365 3.54713 12.7453C3.40625 12.9767 3.23015 13.183 3.01883 13.3642C2.83769 13.495 2.73707 13.5654 2.71694 13.5755H2.33958V10.7075H2.94335C3.0943 11.2006 3.30562 11.6434 3.57732 12.0358C4.19115 12.9113 4.98612 13.3491 5.96222 13.3491C6.53581 13.3491 6.99367 13.178 7.33581 12.8358C7.67795 12.4937 7.84902 12.0358 7.84902 11.4623C7.84902 11.1302 7.74839 10.8333 7.54713 10.5717C7.35593 10.3101 7.11442 10.0786 6.8226 9.87736C6.53078 9.6761 6.12323 9.42453 5.59996 9.12264C4.93581 8.75031 4.39744 8.41321 3.98486 8.11132C3.57229 7.80943 3.22008 7.43207 2.92826 6.97924C2.63644 6.51635 2.49052 5.97296 2.49052 5.34906C2.49052 4.85597 2.62637 4.41321 2.89807 4.02075C3.17983 3.61824 3.59744 3.30126 4.1509 3.06981C4.70436 2.8283 5.38361 2.70755 6.18864 2.70755C6.77229 2.70755 7.35593 2.87358 7.93958 3.20566C8.16097 3.32641 8.38235 3.48742 8.60373 3.68868C8.7748 3.42704 8.9509 3.22075 9.13203 3.06981C9.31317 2.93899 9.4138 2.86855 9.43392 2.85849H9.81128V5.72641H9.20751C9.07669 5.2434 8.88046 4.80566 8.61883 4.41321C8.37732 4.03082 8.07543 3.71384 7.71317 3.46226C7.36097 3.21069 6.95342 3.0849 6.49052 3.0849C6.09807 3.0849 5.76097 3.24088 5.4792 3.55283C5.19744 3.86478 5.05656 4.26226 5.05656 4.74528C5.05656 5.11761 5.16222 5.45472 5.37354 5.7566C5.59493 6.04843 5.86159 6.30503 6.17354 6.52641C6.49556 6.7478 6.92826 7.01446 7.47166 7.32641C8.10562 7.68868 8.61883 8.01069 9.01128 8.29245C9.40373 8.57421 9.73581 8.92641 10.0075 9.34906C10.2792 9.76163 10.4151 10.2396 10.4151 10.783C10.4151 11.3264 10.2591 11.8245 9.94713 12.2774C9.63518 12.7201 9.16725 13.0723 8.54336 13.334C7.91946 13.5956 7.15971 13.7264 6.26411 13.7264Z" fill="black"/>
<path d="M15.3573 2.99952C15.3312 2.89884 15.2909 2.80226 15.2376 2.7126C15.1864 2.61932 15.121 2.53437 15.0435 2.46074C14.9313 2.35047 14.7984 2.26277 14.6522 2.2025C14.3579 2.08346 14.0279 2.08346 13.7336 2.2025C13.5955 2.26016 13.4685 2.34106 13.3585 2.44161L13.3423 2.46074L13.1321 2.66796L12.9218 2.46074L12.9057 2.44161C12.7956 2.34106 12.6687 2.26016 12.5305 2.2025C12.2362 2.08346 11.9062 2.08346 11.6119 2.2025C11.4658 2.26277 11.3328 2.35047 11.2206 2.46074C11.0671 2.60797 10.9584 2.7946 10.9069 2.99952C10.8795 3.10359 10.8664 3.21082 10.8681 3.31833C10.8681 3.41971 10.881 3.52045 10.9069 3.61801C10.934 3.71685 10.9731 3.81212 11.0233 3.90174C11.0776 3.99388 11.1439 4.07856 11.2206 4.1536L13.1321 6.03775L15.0435 4.1536C15.1202 4.07964 15.1858 3.99484 15.2376 3.90174C15.3426 3.72484 15.3974 3.5233 15.3961 3.31833C15.3978 3.21082 15.3847 3.10358 15.3573 2.99952Z" fill="#7ECAF7"/>
</svg>
