<svg width="114" height="45" viewBox="0 0 114 45" fill="none" xmlns="http://www.w3.org/2000/svg">
<path d="M0 19.2819C0 16.6196 2.15819 14.4614 4.82044 14.4614H95.6054C98.2677 14.4614 100.426 16.6196 100.426 19.2819V39.7687C100.426 42.431 98.2677 44.5892 95.6054 44.5892H0V19.2819Z" fill="#FFDE59"/>
<path d="M21.9931 36.7798C21.0425 36.7798 20.152 36.5656 19.3218 36.1371C18.9469 35.9496 18.6322 35.7287 18.3778 35.4743C18.1904 35.7822 17.956 36.0567 17.6748 36.2977C17.4338 36.4718 17.2999 36.5656 17.2731 36.5789H16.771V32.7628H17.5744C17.7753 33.4189 18.0565 34.008 18.418 34.5303C19.2348 35.6952 20.2926 36.2777 21.5914 36.2777C22.3547 36.2777 22.9639 36.05 23.4192 35.5948C23.8745 35.1395 24.1021 34.5303 24.1021 33.767C24.1021 33.3251 23.9682 32.9301 23.7004 32.582C23.446 32.2338 23.1246 31.9259 22.7363 31.6581C22.348 31.3903 21.8057 31.0555 21.1094 30.6538C20.2257 30.1584 19.5093 29.7098 18.9603 29.3081C18.4113 28.9064 17.9426 28.4043 17.5543 27.8017C17.166 27.1858 16.9719 26.4627 16.9719 25.6325C16.9719 24.9764 17.1526 24.3872 17.5142 23.865C17.8891 23.3294 18.4448 22.9076 19.1812 22.5997C19.9177 22.2783 20.8215 22.1176 21.8927 22.1176C22.6694 22.1176 23.446 22.3386 24.2226 22.7804C24.5172 22.9411 24.8118 23.1554 25.1064 23.4232C25.334 23.075 25.5683 22.8005 25.8093 22.5997C26.0504 22.4256 26.1843 22.3319 26.211 22.3185H26.7132V26.1347H25.9098C25.7357 25.4919 25.4746 24.9095 25.1264 24.3872C24.8051 23.8784 24.4034 23.4566 23.9213 23.1219C23.4527 22.7871 22.9104 22.6197 22.2944 22.6197C21.7722 22.6197 21.3236 22.8273 20.9487 23.2424C20.5738 23.6575 20.3863 24.1864 20.3863 24.8291C20.3863 25.3245 20.5269 25.7731 20.8081 26.1748C21.1027 26.5631 21.4575 26.9046 21.8726 27.1992C22.3011 27.4937 22.8769 27.8486 23.6 28.2637C24.4435 28.7457 25.1264 29.1742 25.6487 29.5491C26.1709 29.9241 26.6127 30.3927 26.9743 30.9551C27.3358 31.5041 27.5166 32.1401 27.5166 32.8632C27.5166 33.5863 27.309 34.2491 26.8939 34.8516C26.4788 35.4408 25.8562 35.9094 25.026 36.2576C24.1958 36.6057 23.1849 36.7798 21.9931 36.7798ZM28.8166 36.1772L30.0217 35.876V23.0214L28.8166 22.7202V22.4189H31.4277C32.6328 22.4189 33.2354 23.0214 33.2354 24.2266V27.4402C33.4362 27.1724 33.6438 26.9581 33.858 26.7975C34.4338 26.3556 35.0966 26.1347 35.8464 26.1347C36.5963 26.1347 37.2658 26.2953 37.8549 26.6167C38.4575 26.9247 38.9262 27.3331 39.2609 27.8419C39.5957 28.3507 39.763 28.8863 39.763 29.4487V35.876L40.9681 36.1772V36.4785H38.3571C37.152 36.4785 36.5494 35.876 36.5494 34.6709V29.4487C36.5494 28.6051 36.3954 27.9624 36.0874 27.5205C35.7929 27.0653 35.4447 26.8376 35.043 26.8376C34.5342 26.8376 34.0789 27.1054 33.6772 27.641C33.5032 27.8687 33.3559 28.1365 33.2354 28.4444V35.876L34.4405 36.1772V36.4785H28.8166V36.1772ZM42.174 36.1772L43.3792 35.876V23.0214L42.174 22.7202V22.4189H44.7851C45.9902 22.4189 46.5928 23.0214 46.5928 24.2266V35.876L47.7979 36.1772V36.4785H42.174V36.1772ZM51.2092 40.7968C50.6067 40.7968 50.138 40.6361 49.8033 40.3148C49.4685 39.9934 49.3011 39.5515 49.3011 38.9892C49.3011 38.4803 49.435 38.0853 49.7028 37.8041C49.984 37.5229 50.3523 37.3823 50.8075 37.3823C50.9146 37.3823 51.0218 37.389 51.1289 37.4024C51.236 37.4292 51.3097 37.4426 51.3498 37.4426L51.6109 37.4828V40.1943C51.9992 40.1273 52.3407 39.9131 52.6353 39.5515C52.9299 39.19 53.2579 38.5674 53.6194 37.6836L54.0212 36.6794L48.799 27.0385L47.7947 26.7372V26.4359H50.3054C51.0017 26.4359 51.5507 26.5832 51.9524 26.8778C52.3675 27.159 52.7223 27.5808 53.0169 28.1432L55.5275 32.7828L57.6365 27.3398L56.1301 26.7372V26.4359H59.8459V26.7372L58.239 27.3398L54.222 37.6836C53.7935 38.7816 53.3383 39.5716 52.8562 40.0537C52.3742 40.5491 51.8252 40.7968 51.2092 40.7968ZM63.3513 36.7798C62.1596 36.7798 61.2424 36.5254 60.5997 36.0166C59.957 35.5077 59.6356 34.8583 59.6356 34.0683C59.6356 33.5461 59.7494 33.0306 59.977 32.5217C60.0708 32.2807 60.1913 32.0598 60.3386 31.8589C60.8876 31.725 61.4834 31.6045 62.1261 31.4974C63.5723 31.2564 64.851 31.1091 65.9624 31.0555V30.453C65.9624 28.9667 65.7817 27.9423 65.4201 27.3799C65.0586 26.8175 64.5029 26.5364 63.753 26.5364C63.4719 26.5364 63.2308 26.5698 63.03 26.6368L62.7488 26.7372V29.75L62.4877 29.8102C62.2734 29.837 62.0927 29.8504 61.9454 29.8504C61.4901 29.8504 61.1219 29.7165 60.8407 29.4487C60.5729 29.1675 60.439 28.7993 60.439 28.344C60.439 27.7281 60.747 27.2059 61.3629 26.7774C61.9922 26.3489 62.9229 26.1347 64.1548 26.1347C65.1992 26.1347 66.0963 26.3221 66.8462 26.697C67.6094 27.0586 68.1852 27.5674 68.5735 28.2235C68.9752 28.8662 69.176 29.6094 69.176 30.453V35.876L70.3812 36.1772V36.4785H68.5735C67.7701 36.4785 67.1474 36.2308 66.7056 35.7354C66.5181 35.5345 66.3708 35.2801 66.2637 34.9721C66.0762 35.3069 65.8553 35.6082 65.6009 35.876C64.9983 36.4785 64.2485 36.7798 63.3513 36.7798ZM64.1548 36.0768C64.6502 36.0768 65.0988 35.809 65.5005 35.2734C65.6477 35.0726 65.8017 34.8048 65.9624 34.47V31.5576C65.3465 31.5576 64.7573 31.5911 64.1949 31.6581C63.7798 31.7116 63.4986 31.7451 63.3513 31.7585C63.2844 31.9058 63.2174 32.1066 63.1505 32.3611C63.0166 32.8699 62.9496 33.372 62.9496 33.8674C62.9496 34.6173 63.0635 35.173 63.2911 35.5345C63.5187 35.896 63.8066 36.0768 64.1548 36.0768ZM71.5957 36.1772L72.8008 35.876V23.0214L71.5957 22.7202V22.4189H74.2068C75.4119 22.4189 76.0144 23.0214 76.0144 24.2266V27.4402C76.2153 27.1724 76.4228 26.9581 76.6371 26.7975C77.2128 26.3556 77.8756 26.1347 78.6255 26.1347C79.3753 26.1347 80.0448 26.2953 80.634 26.6167C81.2366 26.9247 81.7052 27.3331 82.04 27.8419C82.3747 28.3507 82.5421 28.8863 82.5421 29.4487V35.876L83.7472 36.1772V36.4785H81.1361C79.931 36.4785 79.3285 35.876 79.3285 34.6709V29.4487C79.3285 28.6051 79.1745 27.9624 78.8665 27.5205C78.5719 27.0653 78.2238 26.8376 77.8221 26.8376C77.3133 26.8376 76.858 27.1054 76.4563 27.641C76.2822 27.8687 76.1349 28.1365 76.0144 28.4444V35.876L77.2195 36.1772V36.4785H71.5957V36.1772Z" fill="black"/>
<path d="M113.472 7.27933C113.26 6.45241 112.934 5.65917 112.503 4.92276C112.089 4.15669 111.559 3.459 110.932 2.85422C110.023 1.9486 108.947 1.22827 107.764 0.733306C105.381 -0.244435 102.71 -0.244435 100.327 0.733306C99.2087 1.20682 98.1809 1.87132 97.29 2.69711L97.1591 2.85422L95.4571 4.55618L93.7551 2.85422L93.6242 2.69711C92.7333 1.87132 91.7055 1.20682 90.5868 0.733306C88.2045 -0.244435 85.5329 -0.244435 83.1506 0.733306C81.967 1.22827 80.8909 1.9486 79.9823 2.85422C78.7395 4.06348 77.8597 5.59627 77.4424 7.27933C77.2204 8.13404 77.1147 9.01478 77.1282 9.89774C77.1282 10.7304 77.233 11.5578 77.4424 12.359C77.6619 13.1709 77.9784 13.9533 78.3851 14.6894C78.8242 15.4462 79.3612 16.1417 79.9823 16.758L95.4571 32.2328L110.932 16.758C111.552 16.1505 112.084 15.454 112.503 14.6894C113.353 13.2365 113.797 11.5812 113.786 9.89774C113.8 9.01478 113.694 8.13402 113.472 7.27933Z" fill="#7ECAF7"/>
<path d="M90.7045 19.8648C89.1191 19.8648 87.9194 19.4952 87.1053 18.7561C86.2912 18.0063 85.8841 16.9565 85.8841 15.6067V8.85813L84.92 8.6171V8.37608H89.4994V8.6171L88.5353 8.85813V15.6067C88.5353 16.9886 88.7496 17.9795 89.1781 18.5794C89.6065 19.1685 90.2225 19.4631 91.0259 19.4631C91.5187 19.4631 91.9846 19.3078 92.4238 18.9971C92.8737 18.6758 93.2326 18.2259 93.5004 17.6474C93.7789 17.0582 93.9182 16.378 93.9182 15.6067V9.09915L92.6327 8.6171V8.37608H95.6857V8.6171L94.4002 9.09915V15.6067C94.4002 16.4744 94.2395 17.2296 93.9182 17.8724C93.5968 18.5151 93.1576 19.0078 92.6006 19.3506C92.0435 19.6934 91.4115 19.8648 90.7045 19.8648ZM94.6437 19.3828L95.9292 18.9007L100.348 8.2154H100.83L105.409 19.1417L106.213 19.3828V19.6238H104.285C103.728 19.6238 103.272 19.5006 102.919 19.2542C102.565 18.9971 102.303 18.665 102.131 18.258L101.312 16.3298H97.4717L96.4112 18.9007L97.6163 19.3828V19.6238H94.6437V19.3828ZM97.6324 15.9281H101.151L99.3838 11.7022L97.6324 15.9281Z" fill="black"/>
</svg>
